<?xml version="1.0" standalone="no"?>
<!DOCTYPE svg PUBLIC "-//W3C//DTD SVG 20010904//EN"
 "http://www.w3.org/TR/2001/REC-SVG-20010904/DTD/svg10.dtd">
<svg version="1.0" xmlns="http://www.w3.org/2000/svg"
 width="512.000000pt" height="512.000000pt" viewBox="0 0 512.000000 512.000000"
 preserveAspectRatio="xMidYMid meet">
<metadata>
Created by potrace 1.14, written by Peter Selinger 2001-2017
</metadata>
<g transform="translate(0.000000,512.000000) scale(0.100000,-0.100000)"
fill="#000000" stroke="none">
<path d="M2407 5055 c-1 -2 -40 -5 -87 -9 -47 -4 -96 -8 -110 -11 -14 -2 -38
-6 -55 -9 -16 -2 -48 -7 -70 -11 -151 -25 -413 -107 -576 -182 -122 -55 -323
-168 -374 -211 -5 -4 -32 -23 -59 -41 -26 -19 -88 -67 -137 -107 -49 -41 -108
-81 -131 -91 -24 -9 -61 -27 -83 -41 -41 -24 -165 -148 -165 -164 0 -5 -11
-25 -24 -46 -14 -20 -36 -71 -50 -113 -13 -42 -46 -112 -73 -155 -91 -146
-180 -335 -240 -509 -28 -82 -80 -282 -87 -340 -6 -45 -14 -90 -21 -120 -2
-11 -7 -60 -10 -110 -9 -120 -11 -136 -22 -165 -10 -27 -9 -85 2 -135 18 -78
17 -87 -8 -133 -42 -77 -24 -178 41 -227 7 -6 22 -49 32 -96 81 -365 254 -730
478 -1013 113 -143 272 -304 395 -401 21 -16 50 -39 65 -51 283 -222 692 -400
1057 -463 114 -19 130 -21 230 -28 230 -17 481 -4 660 32 39 8 81 16 95 18
246 45 611 200 847 360 404 274 697 620 898 1062 40 86 130 348 140 404 3 19
8 37 10 41 4 7 40 213 51 295 17 128 11 489 -11 610 -4 25 0 33 26 50 81 54
98 161 48 310 -46 138 -201 419 -371 673 l-71 107 -3 155 c-5 313 -20 401 -92
550 -43 88 -148 200 -229 243 -208 110 -489 82 -726 -74 l-77 -50 -63 25
c-129 52 -299 102 -412 121 -16 3 -37 8 -45 10 -32 9 -106 19 -225 31 -64 6
-362 13 -368 9z"/>
</g>
</svg>
